<mxfile host="65bd71144e">
    <diagram id="ron91gwyANaT0qD4ReEQ" name="Page-1">
        <mxGraphModel dx="1684" dy="1224" grid="0" gridSize="10" guides="1" tooltips="1" connect="1" arrows="1" fold="1" page="0" pageScale="1" pageWidth="1169" pageHeight="1654" background="#ffffff" math="0" shadow="0">
            <root>
                <mxCell id="0"/>
                <mxCell id="1" parent="0"/>
                <mxCell id="2" style="edgeStyle=elbowEdgeStyle;rounded=0;html=1;exitX=1;exitY=0.384;exitDx=0;exitDy=0;entryX=0.004;entryY=0.417;entryDx=0;entryDy=0;fontSize=14;fontColor=#000000;strokeColor=#000000;fontFamily=Times New Roman;entryPerimeter=0;exitPerimeter=0;" parent="1" source="5" target="7" edge="1">
                    <mxGeometry relative="1" as="geometry">
                        <mxPoint x="207.31999999999982" y="111.5" as="sourcePoint"/>
                        <mxPoint x="411" y="179" as="targetPoint"/>
                        <Array as="points">
                            <mxPoint x="240" y="75"/>
                        </Array>
                    </mxGeometry>
                </mxCell>
                <mxCell id="41" style="edgeStyle=none;html=1;exitX=0.837;exitY=0.998;exitDx=0;exitDy=0;entryX=0;entryY=0.5;entryDx=0;entryDy=0;exitPerimeter=0;rounded=0;strokeColor=#000000;strokeWidth=1;" edge="1" parent="1" source="5">
                    <mxGeometry relative="1" as="geometry">
                        <mxPoint x="212.28999999999996" y="95.60000000000002" as="sourcePoint"/>
                        <mxPoint x="424" y="173.5" as="targetPoint"/>
                        <Array as="points">
                            <mxPoint x="213" y="174"/>
                        </Array>
                    </mxGeometry>
                </mxCell>
                <mxCell id="43" style="edgeStyle=none;rounded=0;html=1;exitX=0.514;exitY=0.999;exitDx=0;exitDy=0;entryX=0;entryY=0.5;entryDx=0;entryDy=0;strokeColor=#000000;strokeWidth=1;exitPerimeter=0;" edge="1" parent="1" source="5">
                    <mxGeometry relative="1" as="geometry">
                        <mxPoint x="157" y="90" as="sourcePoint"/>
                        <mxPoint x="431" y="274" as="targetPoint"/>
                        <Array as="points">
                            <mxPoint x="157" y="274"/>
                        </Array>
                    </mxGeometry>
                </mxCell>
                <mxCell id="49" style="edgeStyle=none;rounded=0;html=1;exitX=0.196;exitY=0.994;exitDx=0;exitDy=0;entryX=0.026;entryY=0.316;entryDx=0;entryDy=0;strokeColor=#000000;strokeWidth=1;entryPerimeter=0;exitPerimeter=0;" edge="1" parent="1" source="5" target="48">
                    <mxGeometry relative="1" as="geometry">
                        <mxPoint x="103.5" y="86" as="sourcePoint"/>
                        <mxPoint x="413.5" y="378" as="targetPoint"/>
                        <Array as="points">
                            <mxPoint x="104" y="378"/>
                        </Array>
                    </mxGeometry>
                </mxCell>
                <mxCell id="5" value="&lt;b style=&quot;font-size: 14px&quot;&gt;&lt;font color=&quot;#000000&quot; style=&quot;font-size: 14px&quot;&gt;DELIVERY BOY&lt;/font&gt;&lt;/b&gt;" style="html=1;dashed=0;whitespace=wrap;fillColor=none;strokeColor=#000000;fontFamily=Times New Roman;fontSize=14;" parent="1" vertex="1">
                    <mxGeometry x="70" y="50" width="170" height="50" as="geometry"/>
                </mxCell>
                <mxCell id="6" style="edgeStyle=elbowEdgeStyle;rounded=0;html=1;exitX=0.028;exitY=0.676;exitDx=0;exitDy=0;entryX=1;entryY=0.75;entryDx=0;entryDy=0;fontSize=14;fontColor=#000000;strokeColor=#000000;exitPerimeter=0;fontFamily=Times New Roman;" parent="1" source="7" target="5" edge="1">
                    <mxGeometry relative="1" as="geometry">
                        <mxPoint x="402.79999999999995" y="197.60000000000002" as="sourcePoint"/>
                        <mxPoint x="182" y="113" as="targetPoint"/>
                        <Array as="points">
                            <mxPoint x="272" y="101"/>
                        </Array>
                    </mxGeometry>
                </mxCell>
                <mxCell id="7" value="Login&lt;br&gt;1.0" style="shape=ellipse;html=1;dashed=0;whitespace=wrap;perimeter=ellipsePerimeter;labelBackgroundColor=#FFFFFF;fontSize=14;fontColor=#000000;strokeColor=#000000;fillColor=#FFFFFF;fontStyle=1;fontFamily=Times New Roman;" parent="1" vertex="1">
                    <mxGeometry x="420" y="40" width="140" height="70" as="geometry"/>
                </mxCell>
                <mxCell id="8" style="edgeStyle=none;rounded=0;html=1;fontSize=14;fontColor=#000000;strokeColor=#000000;entryX=0.988;entryY=0.618;entryDx=0;entryDy=0;entryPerimeter=0;fontFamily=Times New Roman;exitX=0.67;exitY=-0.007;exitDx=0;exitDy=0;exitPerimeter=0;" parent="1" target="7" edge="1" source="22">
                    <mxGeometry relative="1" as="geometry">
                        <mxPoint x="538.52" y="83.10999999999996" as="targetPoint"/>
                        <mxPoint x="690" y="83" as="sourcePoint"/>
                        <Array as="points">
                            <mxPoint x="837" y="83"/>
                        </Array>
                    </mxGeometry>
                </mxCell>
                <mxCell id="10" value="&lt;b style=&quot;font-size: 14px;&quot;&gt;Acknowledgement&lt;/b&gt;" style="text;html=1;align=center;verticalAlign=middle;resizable=0;points=[];autosize=1;strokeColor=none;fillColor=none;fontSize=14;fontColor=#000000;fontFamily=Times New Roman;" parent="1" vertex="1">
                    <mxGeometry x="264.5" y="69" width="120" height="21" as="geometry"/>
                </mxCell>
                <mxCell id="12" value="&lt;b style=&quot;font-size: 14px;&quot;&gt;Acknowledgement&lt;/b&gt;" style="text;html=1;align=center;verticalAlign=middle;resizable=0;points=[];autosize=1;strokeColor=none;fillColor=none;fontSize=14;fontColor=#000000;fontFamily=Times New Roman;" parent="1" vertex="1">
                    <mxGeometry x="564" y="64.5" width="120" height="21" as="geometry"/>
                </mxCell>
                <mxCell id="45" style="edgeStyle=none;rounded=0;html=1;exitX=0;exitY=0.5;exitDx=0;exitDy=0;entryX=0.412;entryY=1;entryDx=0;entryDy=0;strokeColor=#000000;strokeWidth=1;entryPerimeter=0;" edge="1" parent="1" target="5">
                    <mxGeometry relative="1" as="geometry">
                        <mxPoint x="431" y="291" as="sourcePoint"/>
                        <mxPoint x="139.83000000000004" y="108.64999999999998" as="targetPoint"/>
                        <Array as="points">
                            <mxPoint x="140" y="291"/>
                        </Array>
                    </mxGeometry>
                </mxCell>
                <mxCell id="57" style="edgeStyle=none;rounded=0;html=1;exitX=1;exitY=0.5;exitDx=0;exitDy=0;entryX=0.334;entryY=1;entryDx=0;entryDy=0;entryPerimeter=0;strokeColor=#000000;strokeWidth=1;" edge="1" parent="1" target="22">
                    <mxGeometry relative="1" as="geometry">
                        <mxPoint x="555" y="275" as="sourcePoint"/>
                        <mxPoint x="783.1199999999999" y="235.38" as="targetPoint"/>
                        <Array as="points">
                            <mxPoint x="783" y="275"/>
                        </Array>
                    </mxGeometry>
                </mxCell>
                <mxCell id="15" value="Manage Delivery&lt;br style=&quot;font-size: 14px&quot;&gt;3.0" style="shape=ellipse;html=1;dashed=0;whitespace=wrap;perimeter=ellipsePerimeter;labelBackgroundColor=#FFFFFF;fontSize=14;fontColor=#000000;strokeColor=#000000;fillColor=#FFFFFF;fontStyle=1;fontFamily=Times New Roman;" parent="1" vertex="1">
                    <mxGeometry x="429" y="249" width="130" height="70" as="geometry"/>
                </mxCell>
                <mxCell id="17" value="&lt;b style=&quot;font-size: 14px;&quot;&gt;Acknowledgement&lt;/b&gt;" style="text;html=1;align=center;verticalAlign=middle;resizable=0;points=[];autosize=1;strokeColor=none;fillColor=none;fontSize=14;fontColor=#000000;fontFamily=Times New Roman;" parent="1" vertex="1">
                    <mxGeometry x="270.5" y="169" width="120" height="21" as="geometry"/>
                </mxCell>
                <mxCell id="18" style="edgeStyle=elbowEdgeStyle;rounded=0;html=1;fontSize=14;fontColor=#000000;strokeColor=#000000;fontFamily=Times New Roman;entryX=0.416;entryY=-0.02;entryDx=0;entryDy=0;entryPerimeter=0;" parent="1" target="22" edge="1">
                    <mxGeometry relative="1" as="geometry">
                        <mxPoint x="726" y="172" as="targetPoint"/>
                        <mxPoint x="555" y="172" as="sourcePoint"/>
                        <Array as="points">
                            <mxPoint x="796" y="189"/>
                        </Array>
                    </mxGeometry>
                </mxCell>
                <mxCell id="19" style="edgeStyle=none;rounded=0;html=1;fontSize=14;fontColor=#000000;strokeColor=#000000;fontFamily=Times New Roman;exitX=0.337;exitY=-0.05;exitDx=0;exitDy=0;exitPerimeter=0;entryX=0.98;entryY=0.648;entryDx=0;entryDy=0;entryPerimeter=0;" parent="1" source="22" edge="1" target="40">
                    <mxGeometry relative="1" as="geometry">
                        <mxPoint x="553" y="190" as="targetPoint"/>
                        <mxPoint x="726" y="190" as="sourcePoint"/>
                        <Array as="points">
                            <mxPoint x="784" y="190"/>
                        </Array>
                    </mxGeometry>
                </mxCell>
                <mxCell id="21" value="&lt;b style=&quot;font-size: 14px;&quot;&gt;Acknowledgement&lt;/b&gt;" style="text;html=1;align=center;verticalAlign=middle;resizable=0;points=[];autosize=1;strokeColor=none;fillColor=none;fontSize=14;fontColor=#000000;fontFamily=Times New Roman;" parent="1" vertex="1">
                    <mxGeometry x="568" y="171" width="120" height="21" as="geometry"/>
                </mxCell>
                <mxCell id="58" style="edgeStyle=none;rounded=0;html=1;exitX=0.425;exitY=1.015;exitDx=0;exitDy=0;strokeColor=#000000;strokeWidth=1;exitPerimeter=0;" edge="1" parent="1" source="22">
                    <mxGeometry relative="1" as="geometry">
                        <mxPoint x="798" y="248.79999999999995" as="sourcePoint"/>
                        <mxPoint x="558" y="293" as="targetPoint"/>
                        <Array as="points">
                            <mxPoint x="798" y="293"/>
                        </Array>
                    </mxGeometry>
                </mxCell>
                <mxCell id="60" style="edgeStyle=none;rounded=0;html=1;exitX=0.779;exitY=0.993;exitDx=0;exitDy=0;entryX=1.001;entryY=0.543;entryDx=0;entryDy=0;strokeColor=#000000;strokeWidth=1;entryPerimeter=0;exitPerimeter=0;" edge="1" parent="1" source="22" target="48">
                    <mxGeometry relative="1" as="geometry">
                        <mxPoint x="855" y="247.5" as="sourcePoint"/>
                        <mxPoint x="562.5" y="395" as="targetPoint"/>
                        <Array as="points">
                            <mxPoint x="855" y="395"/>
                        </Array>
                    </mxGeometry>
                </mxCell>
                <mxCell id="22" value="&lt;b style=&quot;font-size: 14px&quot;&gt;delivery_boy&lt;/b&gt;" style="html=1;dashed=0;whitespace=wrap;shape=partialRectangle;right=0;left=0;fontSize=14;fontColor=#000000;strokeColor=#000000;fillColor=none;fontFamily=Times New Roman;" parent="1" vertex="1">
                    <mxGeometry x="730" y="214.5" width="160" height="30" as="geometry"/>
                </mxCell>
                <mxCell id="32" style="edgeStyle=elbowEdgeStyle;rounded=0;html=1;entryX=0.75;entryY=0;entryDx=0;entryDy=0;fontSize=14;fontColor=#000000;strokeColor=#000000;fontFamily=Times New Roman;exitX=0.988;exitY=0.384;exitDx=0;exitDy=0;exitPerimeter=0;" parent="1" source="7" edge="1">
                    <mxGeometry relative="1" as="geometry">
                        <mxPoint x="564.18" y="66.95000000000005" as="sourcePoint"/>
                        <mxPoint x="856" y="214.5" as="targetPoint"/>
                        <Array as="points">
                            <mxPoint x="856" y="143"/>
                        </Array>
                    </mxGeometry>
                </mxCell>
                <mxCell id="35" value="&lt;b style=&quot;font-size: 14px&quot;&gt;Request for Login&lt;/b&gt;" style="text;html=1;align=center;verticalAlign=middle;resizable=0;points=[];autosize=1;strokeColor=none;fillColor=none;fontSize=14;fontColor=#000000;fontFamily=Times New Roman;" parent="1" vertex="1">
                    <mxGeometry x="266.5" y="48" width="118" height="21" as="geometry"/>
                </mxCell>
                <mxCell id="37" value="&lt;b style=&quot;font-size: 14px&quot;&gt;Login&lt;/b&gt;" style="text;html=1;align=center;verticalAlign=middle;resizable=0;points=[];autosize=1;strokeColor=none;fillColor=none;fontSize=14;fontColor=#000000;fontFamily=Times New Roman;" parent="1" vertex="1">
                    <mxGeometry x="600" y="46" width="45" height="21" as="geometry"/>
                </mxCell>
                <mxCell id="38" value="&lt;b style=&quot;font-size: 14px&quot;&gt;Manage Account&lt;/b&gt;" style="text;html=1;align=center;verticalAlign=middle;resizable=0;points=[];autosize=1;strokeColor=none;fillColor=none;fontSize=14;fontColor=#000000;fontFamily=Times New Roman;" parent="1" vertex="1">
                    <mxGeometry x="275.5" y="154" width="111" height="21" as="geometry"/>
                </mxCell>
                <mxCell id="39" value="&lt;b style=&quot;font-size: 14px&quot;&gt;Manage Account&lt;/b&gt;" style="text;html=1;align=center;verticalAlign=middle;resizable=0;points=[];autosize=1;strokeColor=none;fillColor=none;fontSize=14;fontColor=#000000;fontFamily=Times New Roman;" parent="1" vertex="1">
                    <mxGeometry x="570.5" y="153" width="111" height="21" as="geometry"/>
                </mxCell>
                <mxCell id="42" style="edgeStyle=none;rounded=0;html=1;exitX=0;exitY=0.593;exitDx=0;exitDy=0;entryX=0.75;entryY=1;entryDx=0;entryDy=0;strokeColor=#000000;strokeWidth=1;exitPerimeter=0;" edge="1" parent="1" target="5">
                    <mxGeometry relative="1" as="geometry">
                        <mxPoint x="424" y="189.01" as="sourcePoint"/>
                        <mxPoint x="197.5" y="103" as="targetPoint"/>
                        <Array as="points">
                            <mxPoint x="198" y="189"/>
                        </Array>
                    </mxGeometry>
                </mxCell>
                <mxCell id="40" value="Manage Account&lt;br style=&quot;font-size: 14px&quot;&gt;2.0" style="shape=ellipse;html=1;dashed=0;whitespace=wrap;perimeter=ellipsePerimeter;labelBackgroundColor=#FFFFFF;fontSize=14;fontColor=#000000;strokeColor=#000000;fillColor=#FFFFFF;fontStyle=1;fontFamily=Times New Roman;" vertex="1" parent="1">
                    <mxGeometry x="424" y="144.5" width="140" height="70" as="geometry"/>
                </mxCell>
                <mxCell id="46" value="&lt;b style=&quot;font-size: 14px&quot;&gt;Manage Delivery&lt;/b&gt;" style="text;html=1;align=center;verticalAlign=middle;resizable=0;points=[];autosize=1;strokeColor=none;fillColor=none;fontSize=14;fontColor=#000000;fontFamily=Times New Roman;" vertex="1" parent="1">
                    <mxGeometry x="269" y="253" width="112" height="21" as="geometry"/>
                </mxCell>
                <mxCell id="47" value="&lt;b style=&quot;font-size: 14px;&quot;&gt;Acknowledgement&lt;/b&gt;" style="text;html=1;align=center;verticalAlign=middle;resizable=0;points=[];autosize=1;strokeColor=none;fillColor=none;fontSize=14;fontColor=#000000;fontFamily=Times New Roman;" vertex="1" parent="1">
                    <mxGeometry x="264" y="271" width="120" height="21" as="geometry"/>
                </mxCell>
                <mxCell id="50" style="edgeStyle=none;rounded=0;html=1;exitX=-0.002;exitY=0.54;exitDx=0;exitDy=0;entryX=0.085;entryY=1.017;entryDx=0;entryDy=0;entryPerimeter=0;strokeColor=#000000;strokeWidth=1;exitPerimeter=0;" edge="1" parent="1" source="48" target="5">
                    <mxGeometry relative="1" as="geometry">
                        <Array as="points">
                            <mxPoint x="84" y="397"/>
                        </Array>
                    </mxGeometry>
                </mxCell>
                <mxCell id="59" style="edgeStyle=none;rounded=0;html=1;exitX=1;exitY=0.5;exitDx=0;exitDy=0;strokeColor=#000000;strokeWidth=1;entryX=0.666;entryY=1.02;entryDx=0;entryDy=0;entryPerimeter=0;" edge="1" parent="1" target="22">
                    <mxGeometry relative="1" as="geometry">
                        <mxPoint x="544.5" y="375" as="sourcePoint"/>
                        <mxPoint x="837" y="247" as="targetPoint"/>
                        <Array as="points">
                            <mxPoint x="837" y="375"/>
                        </Array>
                    </mxGeometry>
                </mxCell>
                <mxCell id="48" value="Update Delivery &lt;br&gt;Status&lt;br&gt;4.0" style="shape=ellipse;html=1;dashed=0;whitespace=wrap;perimeter=ellipsePerimeter;labelBackgroundColor=#FFFFFF;fontSize=14;fontColor=#000000;strokeColor=#000000;fillColor=#FFFFFF;fontStyle=1;fontFamily=Times New Roman;" vertex="1" parent="1">
                    <mxGeometry x="422.5" y="354" width="135" height="76" as="geometry"/>
                </mxCell>
                <mxCell id="54" value="&lt;b style=&quot;font-size: 14px&quot;&gt;Update Delivery Status&lt;/b&gt;" style="text;html=1;align=center;verticalAlign=middle;resizable=0;points=[];autosize=1;strokeColor=none;fillColor=none;fontSize=14;fontColor=#000000;fontFamily=Times New Roman;" vertex="1" parent="1">
                    <mxGeometry x="249.5" y="358" width="148" height="21" as="geometry"/>
                </mxCell>
                <mxCell id="55" value="&lt;b style=&quot;font-size: 14px;&quot;&gt;Acknowledgement&lt;/b&gt;" style="text;html=1;align=center;verticalAlign=middle;resizable=0;points=[];autosize=1;strokeColor=none;fillColor=none;fontSize=14;fontColor=#000000;fontFamily=Times New Roman;" vertex="1" parent="1">
                    <mxGeometry x="256" y="375" width="120" height="21" as="geometry"/>
                </mxCell>
                <mxCell id="61" value="&lt;b style=&quot;font-size: 14px&quot;&gt;Manage Delivery&lt;/b&gt;" style="text;html=1;align=center;verticalAlign=middle;resizable=0;points=[];autosize=1;strokeColor=none;fillColor=none;fontSize=14;fontColor=#000000;fontFamily=Times New Roman;" vertex="1" parent="1">
                    <mxGeometry x="597" y="255" width="112" height="21" as="geometry"/>
                </mxCell>
                <mxCell id="62" value="&lt;b style=&quot;font-size: 14px;&quot;&gt;Acknowledgement&lt;/b&gt;" style="text;html=1;align=center;verticalAlign=middle;resizable=0;points=[];autosize=1;strokeColor=none;fillColor=none;fontSize=14;fontColor=#000000;fontFamily=Times New Roman;" vertex="1" parent="1">
                    <mxGeometry x="589" y="273" width="120" height="21" as="geometry"/>
                </mxCell>
                <mxCell id="63" value="&lt;b style=&quot;font-size: 14px&quot;&gt;Update Status&lt;/b&gt;" style="text;html=1;align=center;verticalAlign=middle;resizable=0;points=[];autosize=1;strokeColor=none;fillColor=none;fontSize=14;fontColor=#000000;fontFamily=Times New Roman;" vertex="1" parent="1">
                    <mxGeometry x="606" y="355" width="94" height="21" as="geometry"/>
                </mxCell>
                <mxCell id="65" value="&lt;b style=&quot;font-size: 14px;&quot;&gt;Acknowledgement&lt;/b&gt;" style="text;html=1;align=center;verticalAlign=middle;resizable=0;points=[];autosize=1;strokeColor=none;fillColor=none;fontSize=14;fontColor=#000000;fontFamily=Times New Roman;" vertex="1" parent="1">
                    <mxGeometry x="593" y="375" width="120" height="21" as="geometry"/>
                </mxCell>
            </root>
        </mxGraphModel>
    </diagram>
</mxfile>